<svg xmlns="http://www.w3.org/2000/svg" viewBox="0 0 4680 3120"><defs><style>.cls-1{fill:#fff;}.cls-2{fill:#eeeef7;}.cls-3{fill:#4ac0b7;}.cls-4{fill:#7bcdd3;}.cls-5{fill:#1aa79e;}.cls-6{fill:#b9bbd1;}.cls-7{fill:#fab893;}.cls-8{fill:#184d6b;}.cls-9{fill:#99d3b8;}.cls-10{fill:#199bd7;}.cls-11{fill:#215d7f;}.cls-12{fill:#f7ad8b;}.cls-13{fill:#ee4155;}.cls-14{fill:#b12d3d;}.cls-15{fill:#ea7c3e;}.cls-16{fill:#ffd77a;}.cls-17{fill:#f7d1b8;}.cls-18{fill:#bbb7d8;}.cls-19{fill:#bac3e0;}.cls-20{fill:#dcdcdc;}.cls-21{fill:#aee1f7;}.cls-22{fill:#70c7f0;}.cls-23{fill:#e2f3fa;}.cls-24{fill:#1762ab;}.cls-25{opacity:0.2;}.cls-26{fill:#0e0f3f;}.cls-27{opacity:0.1;}.cls-28{fill:#4d5aa7;}.cls-29{fill:#8b7fba;}.cls-30{fill:#2b3676;}.cls-31{fill:#f08621;}.cls-32{fill:#f6975a;}.cls-33{fill:#fab995;}.cls-34{fill:#803a3d;}.cls-35{fill:#681744;}.cls-36{fill:#892058;}.cls-37{fill:#f38020;}.cls-38{fill:#f9b086;}.cls-39{fill:#22182b;}.cls-40{fill:#f5917e;}.cls-41{fill:#de7360;}.cls-42{fill:#100f0e;}.cls-43{opacity:0.32;}.cls-44{fill:#ee8171;}.cls-45{fill:#281c1c;}.cls-46{fill:#3c3246;}.cls-47{fill:#f5907e;}.cls-48{fill:#843236;}.cls-49{fill:#ed8070;}.cls-50{fill:#111110;}.cls-51{opacity:0.59;}.cls-52{fill:#2a357c;}.cls-53{fill:#d55454;}.cls-54{fill:#f17c7b;}.cls-55{fill:#fbb75e;}</style></defs><title>10</title><g id="_10" data-name="10"><rect id="_10-2" data-name="10" class="cls-1" width="4680" height="3120"/><path class="cls-2" d="M2634.7,370.24C2134.26,450.07,2342.1,1004.44,1414,1211c-722.79,160.86-515.54,1189.59,499.43,1245.39,1126,61.91,1907.34-272.21,1907.34-992.31C3820.72,1080,3331.1,259.15,2634.7,370.24Z"/><path class="cls-3" d="M1205.87,1987.07c-188,20.89,128.73,671.54,128.73,671.54l109.13,4.68S1393.84,1966.17,1205.87,1987.07Z"/><path class="cls-4" d="M1329.7,2386.63l-77.9-253.07-43.87-142.51c-1.46-4.75-8.94-2.72-7.46,2.06q38.94,126.54,77.9,253.07c25.85,84,52,167.93,77.51,252.05,14.09,46.49,27.54,93.2,38.58,140.52,1.13,4.85,8.6,2.8,7.47-2.06C1382.21,2552.18,1355.21,2469.51,1329.7,2386.63Z"/><path class="cls-4" d="M1248.08,1998.73q-11.65,38.73-20.44,78.24c-.54,2.43,3.19,3.47,3.73,1q8.79-39.49,20.44-78.24C1252.53,1997.36,1248.79,1996.34,1248.08,1998.73Z"/><path class="cls-4" d="M1246,2124.88c-8.86.19-17.42-5.32-25.56-9.27-7.52-3.64-15-7.32-22.61-10.78-15.68-7.17-31.61-13.36-48.07-16.7-1.89-.38-2.71,3.35-.8,3.74,17.07,3.46,33.58,10,49.82,17.49,8.15,3.77,16.23,7.75,24.33,11.67,7.41,3.58,14.84,7.89,22.89,7.72C1247.94,2128.71,1248,2124.84,1246,2124.88Z"/><path class="cls-4" d="M1261.36,2170.79l-110.57-35.66c-2.38-.77-3.4,3-1,3.73l110.57,35.66C1262.71,2175.29,1263.73,2171.55,1261.36,2170.79Z"/><path class="cls-4" d="M1314.37,2347l-110.57-35.66c-2.38-.77-3.4,3-1,3.73l110.57,35.66C1315.72,2351.52,1316.73,2347.78,1314.37,2347Z"/><path class="cls-4" d="M1330.74,2400.82l-110.57-35.66c-2.38-.77-3.4,3-1,3.73l110.57,35.66C1332.09,2405.32,1333.11,2401.58,1330.74,2400.82Z"/><path class="cls-4" d="M1340.53,2130c-19.41,40.09-38.06,80.6-60.45,119.5-1.13,2,2.21,3.7,3.35,1.73,22.38-38.9,41-79.41,60.44-119.51C1344.85,2129.67,1341.51,2127.92,1340.53,2130Z"/><path class="cls-4" d="M1352.52,2165.91c-19.42,40.1-38.07,80.61-60.45,119.51-1.13,2,2.21,3.69,3.34,1.73,22.39-38.9,41-79.41,60.45-119.51C1356.83,2165.64,1353.5,2163.89,1352.52,2165.91Z"/><path class="cls-5" d="M941.7,1964.61c-240.88,175.45,263.1,692.44,263.1,692.44h136.81s-88.87-243.29-191.06-493.51S941.7,1964.61,941.7,1964.61Z"/><path class="cls-4" d="M1148.88,2406c-39.6-92.62-82.28-183.56-127.06-273.77q-38.7-78-77.47-155.91c-2.22-4.47-8.9-.55-6.68,3.9,45.56,91.7,92,183,135.8,275.57,42.46,89.81,79.77,181.86,119.73,272.77,22.42,51,45.83,101.61,71.63,151,2.31,4.42,9,.51,6.69-3.91C1225.76,2588.09,1187.7,2496.83,1148.88,2406Z"/><path class="cls-4" d="M1053.1,2006.72q-8.53,30.36-19.87,60.07-5.68,14.84-12.09,29.47c-3.8,8.69-9.31,17.49-10.34,26.79-.23,2.1,3.64,2.09,3.87,0,1.12-10.11,7.82-20.35,11.9-29.82q5.88-13.68,11.15-27.55,10.9-28.71,19.11-58.09C1057.41,2005.54,1053.67,2004.67,1053.1,2006.72Z"/><path class="cls-4" d="M1047.13,2191.22c-51.71-11.29-104.84-5.24-156.75-14.53-2.18-.39-3.12,3.34-.92,3.74,51.91,9.28,105,3.24,156.75,14.53C1048.39,2195.43,1049.32,2191.7,1047.13,2191.22Z"/><path class="cls-4" d="M1076.85,2248.61c-54.16-4.18-108.81,3.07-162.7-5.47-2.41-.38-3.45,3.35-1,3.74,54.25,8.59,109.2,1.4,163.72,5.6C1079.31,2252.67,1079.3,2248.8,1076.85,2248.61Z"/><path class="cls-4" d="M1120.6,2101.78c-19.41,40.09-38.06,80.6-60.45,119.5-1.13,2,2.21,3.7,3.34,1.73,22.39-38.9,41-79.41,60.45-119.51C1124.91,2101.5,1121.58,2099.75,1120.6,2101.78Z"/><path class="cls-4" d="M1164.76,2188.05q-15.93,30.6-34.25,59.86-9,14.34-18.59,28.32c-5.58,8.15-12.57,16.08-14.9,25.9-.58,2.43,3.15,3.46,3.73,1,2.48-10.43,10.65-19.26,16.56-28q9.18-13.52,17.83-27.38,17.63-28.24,33-57.8C1169.26,2187.8,1165.92,2185.84,1164.76,2188.05Z"/><path class="cls-4" d="M1231,2372.21A591.34,591.34,0,0,1,1167.8,2458c-1.64,1.86,1.08,4.61,2.74,2.74a597.74,597.74,0,0,0,63.77-86.55C1235.61,2372,1232.26,2370.08,1231,2372.21Z"/><path class="cls-4" d="M1241.49,2399.89a592.65,592.65,0,0,1-63.16,85.77c-1.65,1.85,1.08,4.6,2.73,2.73a596.91,596.91,0,0,0,63.77-86.54C1246.13,2399.71,1242.78,2397.76,1241.49,2399.89Z"/><path class="cls-4" d="M1149.14,2414.51q-56.78-13.8-114.66-22.15c-2.44-.35-3.49,3.38-1,3.74q57.83,8.34,114.66,22.14C1150.53,2418.83,1151.56,2415.1,1149.14,2414.51Z"/><path class="cls-3" d="M874.42,2307.09C786.1,2399.26,1113,2655.74,1113,2655.74l77.82,2.48S962.75,2214.92,874.42,2307.09Z"/><path class="cls-4" d="M946.58,2378.43q-32.19-37.38-65.12-74.09c-3.34-3.72-8.8,1.77-5.48,5.48q114.85,128.05,220.38,264.07,30.29,39.08,59.76,78.78c2.94,4,9.67.1,6.69-3.91Q1059.57,2509.79,946.58,2378.43Z"/><path class="cls-4" d="M1100.66,2501q-7.31,26.89-13.18,54.15c-.52,2.43,3.21,3.47,3.73,1q5.88-27.25,13.18-54.15C1105.05,2499.62,1101.32,2498.59,1100.66,2501Z"/><path class="cls-4" d="M1060.5,2518.51a816.43,816.43,0,0,0-86.43,10.34c-2.08.36-1.2,3.38.88,3a807.65,807.65,0,0,1,85.55-10.23C1062.61,2521.5,1062.62,2518.37,1060.5,2518.51Z"/><path class="cls-4" d="M1041.29,2407.21q-12.26,30.95-23.19,62.4c-.82,2.35,2.91,3.37,3.73,1q10.93-31.45,23.19-62.4C1045.94,2405.92,1042.2,2404.91,1041.29,2407.21Z"/><path class="cls-4" d="M985.23,2427.3a806.67,806.67,0,0,0-87.14,8.17c-2.12.32-2.15,4.19,0,3.88a804.16,804.16,0,0,1,87.14-8.18C987.39,2431.09,987.4,2427.21,985.23,2427.3Z"/><path class="cls-4" d="M976.88,2334.61q-12.45,29.4-24.3,59c-.92,2.31,2.82,3.32,3.74,1q11.65-29.19,23.9-58.13C981.18,2334.29,977.85,2332.32,976.88,2334.61Z"/><path class="cls-3" d="M3241.94,1582.23c-227.34-23.64-95.89,1061.16-95.89,1061.16l149.46,3S3469.28,1605.87,3241.94,1582.23Z"/><path class="cls-5" d="M3528.09,1426c-287.75-52-232.58,1220.38-232.58,1220.38l193.08,7.9S3815.85,1478,3528.09,1426Z"/><path class="cls-4" d="M3519,1426c15.76,151-29,298.79-48.05,447.45-9.82,76.52-13.09,153.62-16.5,230.6-3.4,76.62-8.1,153.11-15.19,229.51-8.09,87.24-18.36,174.27-28.63,261.3-.66,5.56,8.48,5.52,9.13,0,18.15-153.81,35.41-307.59,42.54-462.28,3.55-77,6.12-154.09,14.43-230.78,8.18-75.36,23.58-149.68,36.12-224.43,13.93-83,24.06-167.3,15.28-251.37C3527.52,1420.5,3518.38,1420.45,3519,1426Z"/><path class="cls-4" d="M3403.6,1518.93c-1.58-1.91-4.39.79-2.82,2.68q57,69.06,109.24,141.51c1.44,2,4.9.11,3.44-1.91Q3461,1588.4,3403.6,1518.93Z"/><path class="cls-4" d="M3634.88,1620.9c-41,35-91.22,58.63-132.34,93.48-2,1.73,1,4.56,3,2.84,41.12-34.86,91.34-58.5,132.34-93.49C3639.93,1622,3636.9,1619.17,3634.88,1620.9Z"/><path class="cls-4" d="M3640.69,1725.62c-49.92,23.41-106.48,33.36-153.33,62.57a1.9,1.9,0,0,0,2,3.22c46.83-29.2,103.42-39.16,153.33-62.57C3645,1727.75,3643,1724.53,3640.69,1725.62Z"/><path class="cls-4" d="M3350.87,1692.5c-1.37-2.34-5.07-.23-3.69,2.12,35.7,60.84,84,113,128.68,167.37,1.72,2.1,4.73-.88,3-3C3434.43,1804.88,3386.39,1753,3350.87,1692.5Z"/><path class="cls-4" d="M3305.36,2239.11c-1.37-2.34-5.07-.23-3.69,2.12,35.7,60.84,84,113,128.68,167.38,1.72,2.1,4.73-.89,3-3C3388.92,2351.49,3340.88,2299.65,3305.36,2239.11Z"/><path class="cls-4" d="M3299.84,2323.41c-1.37-2.34-5.07-.23-3.69,2.12,35.7,60.84,84,113,128.68,167.37,1.73,2.11,4.74-.88,3-3C3383.4,2435.79,3335.36,2384,3299.84,2323.41Z"/><path class="cls-4" d="M3636,1863.62a943.08,943.08,0,0,1-164.23,67.58,1.79,1.79,0,1,0,1,3.43A947.81,947.81,0,0,0,3638,1866.69C3640.14,1865.55,3638.18,1862.47,3636,1863.62Z"/><path class="cls-4" d="M3619.45,2169.2a943.85,943.85,0,0,1-164.23,67.58,1.79,1.79,0,1,0,1,3.43,948.58,948.58,0,0,0,165.17-67.94C3623.59,2171.12,3621.63,2168.05,3619.45,2169.2Z"/><path class="cls-4" d="M3609.79,2256.13a943.21,943.21,0,0,1-164.23,67.58,1.79,1.79,0,1,0,1,3.43,948,948,0,0,0,165.16-67.94C3613.94,2258.06,3612,2255,3609.79,2256.13Z"/><path class="cls-4" d="M3622.86,1978.26c-25.84,15.11-51.85,30.3-80.12,41.42-26.49,10.42-54.48,18-78.5,33a1.87,1.87,0,1,0,2,3.15c24-15,52-22.54,78.5-33,28.27-11.15,54.27-26.31,80.12-41.42C3627.05,1980.14,3625,1977,3622.86,1978.26Z"/><path class="cls-4" d="M3465.76,2000.63q-69.36-46.92-142.89-87.77c-2.54-1.42-4.85,2.35-2.3,3.76q73.47,40.82,142.89,87.78C3465.86,2006,3468.14,2002.25,3465.76,2000.63Z"/><path class="cls-4" d="M3457.49,2070.44q-69.36-46.92-142.89-87.78c-2.55-1.41-4.85,2.36-2.31,3.77q73.47,40.82,142.89,87.78C3457.58,2075.83,3459.87,2072.05,3457.49,2070.44Z"/><path class="cls-3" d="M3671.55,2008c-152.62,1.76-183,646.28-183,646.28l37.69,3.51C3587,2554.21,3824.18,2006.28,3671.55,2008Z"/><path class="cls-4" d="M3672.61,2013.34c-3.31,86.84-39.43,168.37-66.79,250.63-26.16,78.65-40.93,159.83-65.05,239-13.68,44.87-30.64,88.95-54.33,130.39-3,5.25,5.81,9.9,8.81,4.64,42.27-73.94,63-155.29,82.94-235.9,10.12-40.88,20.19-81.8,33-122.07,13.34-41.8,29.32-82.88,42.87-124.62,15-46.31,26.86-93.64,28.7-142C3683,2007.43,3672.83,2007.44,3672.61,2013.34Z"/><path class="cls-4" d="M3713.62,2143.09q-18,10.11-36.45,19.41-9.48,4.76-19.1,9.28c-4.32,2-16.86,9.94-20.74,7.11-2.25-1.65-4.09-5.77-5.65-8-1.88-2.67-3.76-5.33-5.62-8-3.93-5.65-7.81-11.33-11.57-17.08a376.82,376.82,0,0,1-20.76-35.43c-1-2-4.12-.25-3.11,1.73a388.52,388.52,0,0,0,23.15,39.06c4.41,6.63,9,13.17,13.55,19.69,2.08,3,4.16,5.93,6.27,8.87.93,1.29,2,3.28,3.67,3.91,4.06,1.5,11.11-3.57,14.52-5.13q10.68-4.89,21.21-10.07,21.56-10.6,42.45-22.39C3717.43,2144.93,3715.62,2142,3713.62,2143.09Z"/><path class="cls-4" d="M3713.71,2098.88a289.75,289.75,0,0,0-56.48,24c-2,1.11-.19,4.09,1.82,3a285.35,285.35,0,0,1,55.61-23.67A1.73,1.73,0,1,0,3713.71,2098.88Z"/><path class="cls-4" d="M3567.16,2183.38c-1.42-1.75-4,.7-2.55,2.43a766.66,766.66,0,0,1,49.67,68.49c1.22,1.88,4.33.15,3.11-1.74A773.9,773.9,0,0,0,3567.16,2183.38Z"/><path class="cls-4" d="M3554.65,2234.69c-1.54-1.67-4.08.78-2.55,2.43q25.61,27.71,51.64,55a1.76,1.76,0,0,0,2.55-2.43Q3580.25,2262.4,3554.65,2234.69Z"/><path class="cls-4" d="M3660.81,2305.46q-30,9.14-59.33,20c-2.14.79-1.21,4.12.95,3.32q29.34-10.86,59.33-20A1.73,1.73,0,1,0,3660.81,2305.46Z"/><path class="cls-4" d="M3585.92,2392.11l-1.07-1.48-1.4.87Z"/><path class="cls-4" d="M3641,2355.83l-56.1,34.8,1.07,1.48-2.47-.61,1.4-.87q-21.95-30.68-44.12-61.2c-1.31-1.8-4.44-.09-3.11,1.74q22.71,31.26,45.19,62.68a1.88,1.88,0,0,0,2.46.62l57.5-35.67A1.74,1.74,0,0,0,3641,2355.83Z"/><path class="cls-5" d="M2933.67,2045.57c-122.89,86.46,246.17,626.84,246.17,626.84l32.77-18.15C3198.6,2536.29,3056.56,1959.1,2933.67,2045.57Z"/><path class="cls-4" d="M3098.52,2417.6c-16.75-38.84-33.57-77.69-47.72-117.56-14.7-41.38-26.81-83.65-41.3-125.1-16.08-46-35.39-91-63.45-131.34-3.42-4.92-11.71.77-8.29,5.69,50.37,72.37,70.83,158.71,98.86,240.76,26.8,78.46,64.39,152.62,93.13,230.33,16.3,44.06,29.45,89.31,35.52,136.17.77,5.93,10.77,4.8,10-1.15C3164.42,2571.8,3131.56,2494.19,3098.52,2417.6Z"/><path class="cls-4" d="M3050.33,2131.82q-8.43,18.22-17.75,36.07-4.78,9.15-9.83,18.18c-2.27,4.06-7.63,17.47-12.51,17.33-2.83-.09-6.84-2.41-9.47-3.33q-4.72-1.68-9.45-3.38-10-3.58-19.83-7.42a407.36,407.36,0,0,1-38.51-17.22c-2-1.05-3.5,2.1-1.46,3.15a420.46,420.46,0,0,0,42.66,18.82c7.63,2.93,15.32,5.71,23,8.45,3.5,1.24,7,2.49,10.51,3.7,1.55.53,3.61,1.57,5.36,1.13,4.23-1,6.86-9.08,8.67-12.25q5.68-9.91,11.07-20,11-20.62,20.8-41.83C3054.55,2131.19,3051.27,2129.78,3050.33,2131.82Z"/><path class="cls-4" d="M3023.4,2095.86a267.57,267.57,0,0,0-31.2,51c-.95,2,2.34,3.43,3.29,1.4A264.29,264.29,0,0,1,3026.2,2098C3027.58,2096.25,3024.78,2094.08,3023.4,2095.86Z"/><path class="cls-4" d="M3039.05,2274.34a839.15,839.15,0,0,0-83.06-28.2c-2.22-.62-2.78,2.78-.59,3.4a827.06,827.06,0,0,1,82.19,27.95C3039.72,2278.34,3041.2,2275.2,3039.05,2274.34Z"/><path class="cls-4" d="M3052.73,2310.72q-37.84-7.69-75.56-15.93c-2.26-.5-2.84,2.9-.58,3.39q37.71,8.25,75.56,15.94C3054.42,2314.58,3055,2311.18,3052.73,2310.72Z"/><path class="cls-4" d="M3106.62,2293.12q-18.76,24.12-36,49.29c-1.26,1.84,1.53,4,2.8,2.16q17.19-25.17,36-49.29C3110.81,2293.52,3108,2291.34,3106.62,2293.12Z"/><path class="cls-4" d="M3098.73,2405.22l-1.77-.61c-.2.5-.4,1-.61,1.49Z"/><path class="cls-4" d="M3121.26,2345.1l-24.3,59.51,1.77.61-2.38.88c.21-.5.41-1,.61-1.49q-36.57-12.68-73.22-25.12c-2.17-.73-3.66,2.4-1.47,3.15q37.56,12.72,75,25.73a1.88,1.88,0,0,0,2.38-.87q12.45-30.51,24.91-61C3125.4,2344.44,3122.11,2343,3121.26,2345.1Z"/><path class="cls-5" d="M3767.17,2384.3c-78.61-25-240.89,273.52-240.89,273.52l121.28,1.08C3670,2649,3845.78,2409.32,3767.17,2384.3Z"/><path class="cls-4" d="M3753.63,2385.74a2086.63,2086.63,0,0,1-171.76,257.57c-3.63,4.65,4.9,9.05,8.5,4.43a2086.52,2086.52,0,0,0,171.76-257.56C3765,2385.14,3756.48,2380.68,3753.63,2385.74Z"/><path class="cls-4" d="M3774.5,2444.88q-28.29,8.45-55.65,19.38a48.5,48.5,0,0,1-4.81,2c-5.33,1.48-4.38-.19-5.37-4q-1.78-6.89-3.58-13.77l-7.74-29.85c-.59-2.25-4.23-1.29-3.65,1l8.94,34.44c1.06,4.08,1.49,11.6,4.14,15.1,1.29,1.7,2.59,2.09,4.79,1.85,4.94-.54,10.29-4,14.86-5.79q7.68-3,15.45-5.78,16.63-6,33.63-11A1.82,1.82,0,1,0,3774.5,2444.88Z"/><path class="cls-4" d="M3679.18,2441.07c-.48-2.28-4.13-1.31-3.65,1q6.27,29.74,15,58.94c.67,2.23,4.32,1.28,3.65-1Q3685.45,2470.84,3679.18,2441.07Z"/><path class="cls-4" d="M3747.89,2515.58l-67.64,4.87c-2.41.18-2.43,3.79,0,3.61l67.64-4.87C3750.3,2519,3750.32,2515.41,3747.89,2515.58Z"/><path class="cls-4" d="M3644.37,2478c-.46-2.28-4.11-1.32-3.65,1a353.42,353.42,0,0,0,19.84,64.86c.89,2.14,4.55,1.21,3.65-1A352.65,352.65,0,0,1,3644.37,2478Z"/><path class="cls-4" d="M3714.84,2571.44q-35-4.3-70.09-6.49c-2-.13-2,3.48,0,3.61q35.11,2.19,70.09,6.49C3716.82,2575.3,3716.8,2571.68,3714.84,2571.44Z"/><ellipse class="cls-6" cx="2415.15" cy="2681.39" rx="1350.84" ry="78.61"/><path class="cls-7" d="M3124.86,2465.36l-38.14,136.27-75.67,39.68a7.9,7.9,0,0,0-5.36,7.36,8.13,8.13,0,0,0,8.37,7.88l167.46,2.73-9.29-46,41.38-135.46Z"/><path class="cls-7" d="M3558.16,2361.56l-60.78,65.77,92.47,96.94-24.33,80.52a7.59,7.59,0,0,0,2.53,8.6,8.74,8.74,0,0,0,11.8-.95l107.33-125-36.94-28.22Z"/><path class="cls-8" d="M3313.36,1670l-155.54,45s-7.05,279.35,85,456.31,280.08,345.14,280.08,345.14l107.61-112.2s-153.2-213.87-187.07-266.95S3313.36,1670,3313.36,1670Z"/><polygon class="cls-9" points="3608.65 2415.2 3613.48 2421.96 3618.32 2418.16 3613.48 2411.4 3608.65 2415.2"/><path class="cls-10" d="M3364.7,1939.93l-5.83,1.69c1.45,5.49,2.9,11,4.36,16.43l5.82-1.7Q3366.86,1948.18,3364.7,1939.93Z"/><path class="cls-10" d="M3356.12,1907l-5.84,1.66q2.13,8.23,4.28,16.49l5.83-1.67Q3358.25,1915.22,3356.12,1907Z"/><path class="cls-10" d="M3382.43,2005.62l-5.8,1.77q2.31,8.33,4.6,16.42l5.8-1.81Q3384.73,2013.93,3382.43,2005.62Z"/><path class="cls-10" d="M3347.68,1874l-5.84,1.62q2.07,8.22,4.2,16.52l5.84-1.64Q3349.75,1882.19,3347.68,1874Z"/><path class="cls-10" d="M3373.45,1972.79l-5.81,1.73q2.24,8.28,4.46,16.44l5.81-1.74Q3375.69,1981.07,3373.45,1972.79Z"/><path class="cls-10" d="M3323.06,1774.76l-5.85,1.56q2,8.06,4,16.57l5.85-1.57Q3325,1782.8,3323.06,1774.76Z"/><path class="cls-10" d="M3307.14,1708.41l-5.86,1.52c1.15,4.89,2.47,10.45,3.94,16.62l5.87-1.54C3309.62,1718.85,3308.3,1713.29,3307.14,1708.41Z"/><path class="cls-10" d="M3339.37,1840.94l-5.85,1.61q2,8.16,4.14,16.53l5.85-1.62Q3341.41,1849.12,3339.37,1840.94Z"/><path class="cls-10" d="M3315.06,1741.61l-5.87,1.54q1.91,7.89,4,16.59l5.86-1.55Q3317,1749.49,3315.06,1741.61Z"/><path class="cls-10" d="M3391.7,2038.36l-5.78,1.84q2.41,8.35,4.79,16.36l5.77-1.88Q3394.13,2046.7,3391.7,2038.36Z"/><path class="cls-10" d="M3331.17,1807.87l-5.86,1.58q2,8.13,4.09,16.55l5.85-1.59Q3333.17,1816,3331.17,1807.87Z"/><polygon class="cls-10" points="3569.61 2360.47 3579.37 2374.17 3584.21 2370.38 3574.46 2356.69 3569.61 2360.47"/><path class="cls-10" d="M3492,2250.65l9.66,13.76,4.87-3.76-9.66-13.76Z"/><path class="cls-10" d="M3511.3,2278.16l9.7,13.74,4.85-3.77-9.69-13.74Z"/><polygon class="cls-10" points="3530.7 2305.63 3540.41 2319.35 3545.27 2315.57 3535.55 2301.86 3530.7 2305.63"/><polygon class="cls-10" points="3550.14 2333.07 3559.87 2346.77 3564.72 2342.99 3554.99 2329.28 3550.14 2333.07"/><polygon class="cls-10" points="3589.13 2387.86 3598.89 2401.55 3603.73 2397.76 3593.97 2384.07 3589.13 2387.86"/><path class="cls-10" d="M3417.83,2137.55a133.92,133.92,0,0,0,7.49,15.68l5.15-3.32a129.39,129.39,0,0,1-7.1-14.89Z"/><path class="cls-10" d="M3401.39,2071l-5.76,1.94c1.74,5.68,3.45,11.16,5.08,16.28l5.74-2C3404.82,2082.07,3403.12,2076.61,3401.39,2071Z"/><path class="cls-10" d="M3472.69,2223.07l9.62,13.8,4.88-3.75c-3.27-4.68-6.49-9.28-9.62-13.78Z"/><path class="cls-10" d="M3406,2105.4c1.95,5.82,3.85,11.25,5.63,16.15l5.65-2.26c-1.77-4.84-3.64-10.22-5.58-16Z"/><path class="cls-10" d="M3434.6,2167.51c2.82,4.22,6,8.91,9.43,14l4.92-3.68c-3.44-5-6.59-9.72-9.4-13.93Z"/><path class="cls-10" d="M3453.53,2195.39c3,4.44,6.25,9.07,9.56,13.86l4.89-3.72q-5-7.19-9.54-13.84Z"/><path class="cls-9" d="M3295.78,1686.57s.67,2.89,1.92,8.21l5.87-1.51c-1.24-5.31-1.91-8.19-1.92-8.2Z"/><path class="cls-11" d="M3260.74,1670s-66.52,285.85-113.77,466.67c-24,92-81.34,419-81.34,419l169.91,14.17s79.87-291.09,99.55-363.16,122.46-281.35,146.52-347.24,0-156.49,0-156.49Z"/><path class="cls-10" d="M3408.92,1730.87l-5.79,1.81c.53,1.87,13.53,46.36,58.19,88.4l4-4.71C3422,1775.59,3409.05,1731.31,3408.92,1730.87Z"/><path class="cls-9" d="M3451.29,1703.79s.78,3,1.89,8.06l5.89-1.42c-1.14-5.25-1.93-8.21-2-8.33Z"/><polygon class="cls-10" points="3268.14 2344.68 3273.97 2346.35 3278.21 2330.09 3272.38 2328.42 3268.14 2344.68"/><polygon class="cls-10" points="3259.67 2377.21 3265.5 2378.88 3269.73 2362.61 3263.9 2360.95 3259.67 2377.21"/><polygon class="cls-10" points="3276.63 2312.16 3282.46 2313.83 3286.72 2297.58 3280.89 2295.9 3276.63 2312.16"/><path class="cls-10" d="M3304.78,2205.81c-.73,2.65-1.52,5.59-2.39,8.8l5.82,1.72c.86-3.2,1.66-6.13,2.38-8.78.61-2.25,1.33-4.7,2.12-7.28l-5.75-1.95C3306.15,2201,3305.41,2203.49,3304.78,2205.81Z"/><polygon class="cls-10" points="3285.15 2279.64 3290.98 2281.32 3295.26 2265.06 3289.43 2263.38 3285.15 2279.64"/><polygon class="cls-10" points="3251.2 2409.77 3257.04 2411.43 3261.26 2395.17 3255.43 2393.5 3251.2 2409.77"/><path class="cls-10" d="M3293.72,2247.12l5.83,1.69c1.52-5.75,3-11.18,4.31-16.24l-5.82-1.71Q3296,2238.46,3293.72,2247.12Z"/><polygon class="cls-10" points="3242.76 2442.3 3248.59 2443.97 3252.81 2427.7 3246.98 2426.03 3242.76 2442.3"/><path class="cls-10" d="M3461.65,1777.9l6-.25c-.21-5.52-.56-11.22-1.05-17l-6,.56C3461.1,1766.89,3461.45,1772.49,3461.65,1777.9Z"/><polygon class="cls-10" points="3217.48 2539.97 3223.31 2541.63 3227.52 2525.34 3221.69 2523.69 3217.48 2539.97"/><path class="cls-10" d="M3464.83,1743.83c-.72-5.58-1.57-11.22-2.52-16.76l-5.95,1.12c.94,5.45,1.77,11,2.48,16.49Z"/><polygon class="cls-10" points="3234.33 2474.85 3240.16 2476.51 3244.38 2460.24 3238.54 2458.57 3234.33 2474.85"/><polygon class="cls-10" points="3225.9 2507.4 3231.73 2509.06 3235.94 2492.78 3230.11 2491.13 3225.9 2507.4"/><path class="cls-10" d="M3461,1811.15l6,.53c.44-5.48.71-11.21.81-17l-6-.11C3461.73,1800.22,3461.47,1805.81,3461,1811.15Z"/><path class="cls-10" d="M3418.39,1936.29l5.48,2.68q3.49-7.85,6.79-15.3l-5.49-2.66Q3421.9,1928.45,3418.39,1936.29Z"/><polygon class="cls-10" points="3390.99 1997.29 3396.46 1999.99 3403.33 1984.75 3397.86 1982.05 3390.99 1997.29"/><path class="cls-10" d="M3404.72,1966.8l5.47,2.7q3.48-7.74,6.85-15.25l-5.47-2.7Q3408.21,1959.05,3404.72,1966.8Z"/><path class="cls-10" d="M3431.88,1905.7l5.5,2.63c2.34-5.37,4.55-10.52,6.62-15.4l-5.52-2.58C3436.42,1895.22,3434.21,1900.35,3431.88,1905.7Z"/><path class="cls-10" d="M3455.83,1843.76l5.84,1.62c1.34-5.32,2.48-11,3.39-16.75l-6-1C3458.22,1833.2,3457.12,1838.63,3455.83,1843.76Z"/><path class="cls-10" d="M3444.9,1874.94l5.56,2.49c2.42-6,4.49-11.25,6.14-15.71l-5.64-2.29C3449.34,1863.83,3447.3,1869.05,3444.9,1874.94Z"/><path class="cls-10" d="M3324.26,2150.81l5.57,2.44c1.94-4.87,4.06-10.08,6.28-15.48l-5.55-2.51C3328.33,2140.69,3326.21,2145.92,3324.26,2150.81Z"/><path class="cls-10" d="M3312.32,2182.27l5.67,2.2c1.7-4.8,3.64-10.07,5.77-15.65l-5.61-2.36C3316,2172.1,3314,2177.41,3312.32,2182.27Z"/><path class="cls-10" d="M3337,2119.78l5.53,2.56q3.18-7.56,6.53-15.38l-5.51-2.6Q3340.2,2112.21,3337,2119.78Z"/><path class="cls-10" d="M3350.2,2089l5.5,2.63q3.3-7.59,6.69-15.31l-5.48-2.65Q3353.51,2081.39,3350.2,2089Z"/><path class="cls-10" d="M3363.66,2058.35l5.48,2.67q3.38-7.62,6.79-15.27l-5.47-2.69Q3367,2050.73,3363.66,2058.35Z"/><path class="cls-10" d="M3377.29,2027.77l5.47,2.7q3.42-7.63,6.84-15.24l-5.47-2.7Q3380.73,2020.13,3377.29,2027.77Z"/><polygon class="cls-9" points="3211.51 2563.09 3217.34 2564.74 3219.45 2556.59 3213.61 2554.94 3211.51 2563.09"/><path class="cls-7" d="M3042,1366.74,3035.8,1378l-130.13-107.79s-43,33.2-41.14,56.55c62.76,76.59,143.7,207.94,211.07,187.69a59.75,59.75,0,0,0,16.72-8.63c55.17-39,120.49-177.79,120.49-177.79l-135.87-24.11Z"/><path class="cls-12" d="M3042,1366.74c12.47,16,55.57,72.32,58.13,90.09,1.52,10.62-3,31.27-7.83,48.94,55.17-39,120.49-177.79,120.49-177.79l-135.87-24.11Z"/><path class="cls-13" d="M3472.82,1258.71S3372,1100.66,3277,1127.08s-122.4,183.4-122.4,183.4c20.16,75.74-18.33,401.69-18.33,401.69s194.63,48.92,384.49,4.89C3520.71,1717.06,3560.19,1334.44,3472.82,1258.71Z"/><path class="cls-13" d="M3046.18,1313.23l113.25,127c26.93-32.1,37.85-84.64,37.85-84.64l60-218.86C3166.47,1135.11,3077.89,1262.42,3046.18,1313.23Z"/><path class="cls-14" d="M3095.35,1368.36l64.08,71.86-.55-37.74c-4.64-83.56,14-135.17,14-135.17C3131.28,1276.47,3095.35,1368.36,3095.35,1368.36Z"/><path class="cls-15" d="M3084.85,2597.78s-82.95,41.65-93.12,49.23-19.16,33.53-10.57,37.08,191.07,14.68,200.93,8.88c3.75-2.18,2.18-43.22,1-88.15Z"/><path class="cls-16" d="M3162.89,2685.27c-41.44-4.55-135.6-10.27-177.61-11.49-.89,0-.93.65,0,.72,41.89,3.64,136,10.79,177.64,11.05C3163.22,2685.55,3163.23,2685.31,3162.89,2685.27Z"/><path class="cls-16" d="M3008.31,2638.45a.28.28,0,0,0,0,.55c16.58,2.26,30.76,18.2,32.3,35.54,0,.28.48.29.51,0,.75-9.1-3.3-17.74-8.21-24A33.19,33.19,0,0,0,3008.31,2638.45Z"/><path class="cls-1" d="M3073,2584.24c-2.64-4.74-15.05-17-17.12-2-1.14,8.29,9.54,17.07,14.76,21.51,4.38,3.72,8.91,7.21,13.16,11.1-2-7-3.74-14.14-6.43-21A81,81,0,0,0,3073,2584.24Z"/><path class="cls-1" d="M3115.09,2599.62a68,68,0,0,0-32.85,15.3.38.38,0,0,0,0,.59c-.5.9-.3,2.33.86,2.58,11.23,2.46,22.94,6.55,34.55,5.33,6.78-.72,15.36-4.6,14.81-13.22C3131.88,2601.09,3122.13,2598.59,3115.09,2599.62ZM3126,2616c-5.26,6.29-18.57,3.49-25.18,2.21-5.55-1.07-11-2.41-16.6-3.27,6.41-3,12.68-6.21,19.37-8.49a73.14,73.14,0,0,1,9.82-2.78C3118.6,2602.66,3135.59,2604.55,3126,2616Z"/><path class="cls-1" d="M3068.33,2611.15a.87.87,0,0,0-.31,1.69,179.74,179.74,0,0,1,35.59,17c.38.24,1-.2.71-.65C3096.67,2617.41,3081.57,2611.68,3068.33,2611.15Z"/><path class="cls-1" d="M3057.91,2614.76a.87.87,0,0,0-.31,1.69,179.49,179.49,0,0,1,35.59,17c.38.23,1-.2.71-.66C3086.24,2621,3071.15,2615.29,3057.91,2614.76Z"/><path class="cls-1" d="M3047.49,2618.37a.88.88,0,0,0-.32,1.7,179.82,179.82,0,0,1,35.6,17c.38.24,1-.2.71-.65C3075.82,2624.64,3060.73,2618.91,3047.49,2618.37Z"/><path class="cls-1" d="M3037.07,2622a.88.88,0,0,0-.32,1.69,179.3,179.3,0,0,1,35.6,17c.38.23,1-.2.71-.66C3065.4,2628.26,3050.31,2622.52,3037.07,2622Z"/><path class="cls-15" d="M3576.62,2515.69s-31.61,90.53-33.84,103.4,8.62,38,17.13,34.28,146.54-129.37,149.73-140.74c1.24-4.31-27.23-32.53-58-63.81Z"/><path class="cls-16" d="M3690.77,2521.17c-32.69,27.09-103.89,91.92-134.78,121.81-.65.63-.23,1.14.45.55,32.41-28.07,104.51-91.82,134.51-122.15C3691.19,2521.13,3691,2521,3690.77,2521.17Z"/><path class="cls-16" d="M3574.6,2591.52c-8-.91-18.44,2.1-25.66,9.31a.27.27,0,0,0,.35.42c13.36-10.52,34.13-9.5,46.79,1.79.2.18.54-.15.38-.35C3590.93,2595.62,3582.28,2592.4,3574.6,2591.52Z"/><path class="cls-1" d="M3559.13,2514.67c-5.05-1.46-22.13-1.18-13.61,11.08,4.7,6.77,18.2,5.24,24.9,4.59,5.61-.54,11.18-1.37,16.81-1.69-6.13-3.56-12.09-7.38-18.57-10.29A71.61,71.61,0,0,0,3559.13,2514.67Z"/><path class="cls-1" d="M3599.5,2494.86a74.85,74.85,0,0,0-13.32,35,.35.35,0,0,0,.4.41c.24,1,1.33,1.89,2.34,1.22,9.67-6.46,20.78-12.11,28.27-21.48,4.38-5.48,7.94-14.54,1.8-20.3C3612.5,2483.62,3603.85,2489,3599.5,2494.86Zm2.17,23.7c-4.68,3.3-9.49,6.34-14.06,9.81,2.62-6.82,4.94-13.72,8.21-20.26a78.55,78.55,0,0,1,5.18-9.17c3-4.47,16.46-15.55,17.22-.4C3618.65,2506.9,3607.26,2514.63,3601.67,2518.56Z"/><path class="cls-1" d="M3611.5,2523.92c-13.34-2.83-28,4.11-37.79,13.43-.7.66.05,1.87.9,1.44a177.73,177.73,0,0,1,36.82-13.88C3611.86,2524.8,3612,2524,3611.5,2523.92Z"/><path class="cls-1" d="M3606.45,2534.14c-13.34-2.84-28,4.11-37.79,13.42-.71.67.05,1.88.9,1.44a178.26,178.26,0,0,1,36.82-13.87C3606.81,2535,3607,2534.25,3606.45,2534.14Z"/><path class="cls-1" d="M3601.4,2544.36c-13.34-2.84-28,4.11-37.79,13.42-.71.67,0,1.88.9,1.44a177.69,177.69,0,0,1,36.82-13.87C3601.76,2545.24,3601.92,2544.47,3601.4,2544.36Z"/><path class="cls-1" d="M3596.35,2554.57c-13.34-2.83-28,4.11-37.79,13.42-.71.67,0,1.88.9,1.45a177.73,177.73,0,0,1,36.82-13.88C3596.71,2555.45,3596.86,2554.68,3596.35,2554.57Z"/><path class="cls-17" d="M2889.87,1280.66s2.7-23.69,5.7-35.31-8.53-21.73-14.21-13-15.39,27.93-15.39,27.93,3.7-19.66,8.74-39.31-8.52-23.15-12.43-15-19.72,36.7-19.72,36.7,8.59-32.78,11.47-44.21-11.06-15.74-15.71-5.78-16.9,34.44-16.9,34.44,3.45-15.09,8.27-33-12.27-21.55-17-12.13-16.49,35.21-20.06,51.17.21,81.94,68.9,98.91C2911.56,1344.44,2923.86,1311.21,2889.87,1280.66Z"/><path class="cls-12" d="M2823,1221.66a2.57,2.57,0,0,0-3.47,1.34,188.36,188.36,0,0,0-7.19,19.08,2.82,2.82,0,0,0,1,3.13,2.49,2.49,0,0,0,.65.33,2.58,2.58,0,0,0,3.3-1.74,182.47,182.47,0,0,1,7-18.49A2.71,2.71,0,0,0,2823,1221.66Z"/><path class="cls-12" d="M2844.35,1236.61a2.57,2.57,0,0,0-3.42,1.47l-7.78,19.55a2.8,2.8,0,0,0,.94,3.32,2.93,2.93,0,0,0,.46.27,2.57,2.57,0,0,0,3.42-1.48l7.79-19.55A2.76,2.76,0,0,0,2844.35,1236.61Z"/><path class="cls-12" d="M2867.41,1255a2.6,2.6,0,0,0-3.33,1.7l-5.51,16.64a2.82,2.82,0,0,0,1,3.17,2.35,2.35,0,0,0,.61.32,2.59,2.59,0,0,0,3.33-1.69l5.51-16.65A2.79,2.79,0,0,0,2867.41,1255Z"/><path class="cls-13" d="M3485.74,1166c-82.69-66.53-164.08-34.78-164.08-34.78s48.88,226,78.57,282.93L3577,1388.75C3553.31,1315.16,3537.35,1207.53,3485.74,1166Z"/><path class="cls-14" d="M3314.44,1205c59.41-7.9,62.53-81.36,62.53-81.36l-136.65,14.06S3220.76,1217.44,3314.44,1205Z"/><path class="cls-14" d="M3368.91,1254s2.8,89.65,7.87,142.38l199.54-8.12s-113.4-3.34-140.85-30.67S3368.91,1254,3368.91,1254Z"/><path class="cls-18" d="M2333.29,1521.88l35-35L2314,1432.7l-35,35a143.87,143.87,0,0,0-32.34-13.37v-49.51h-76.78v49.51a143.72,143.72,0,0,0-32.37,13.37l-35-35-54.28,54.22,35,35a142,142,0,0,0-13.46,32.38h-49.43V1631h49.33a141.76,141.76,0,0,0,13.45,32.5l-34.86,34.82,54.28,54.24,34.82-34.78a142.63,142.63,0,0,0,32.58,13.49v49.18h76.78v-49.18a142.66,142.66,0,0,0,32.56-13.49l34.82,34.78,54.3-54.24-34.86-34.82a143.54,143.54,0,0,0,13.44-32.5h49.32v-76.69h-49.43A141.62,141.62,0,0,0,2333.29,1521.88Zm-125.07,138.64c-93.08-5.6-84.75-132.83,0-135.48C2301.27,1530.63,2292.93,1657.87,2208.22,1660.52Z"/><path class="cls-19" d="M2082.37,1592.77c10.73,174.33,248,157.93,251.68,0C2323.32,1418.46,2086,1434.91,2082.37,1592.77Zm125.85,67.75c-93.08-5.6-84.75-132.83,0-135.48C2301.27,1530.63,2292.93,1657.87,2208.22,1660.52Z"/><polygon class="cls-19" points="2233.67 373.97 2155.86 394.32 1931.52 453.01 2032.94 840.99 2335.1 761.95 2253 447.9 2233.67 373.97"/><rect class="cls-20" x="1975.18" y="478.04" width="254.42" height="10.3" transform="translate(-53.85 547.52) rotate(-14.65)"/><rect class="cls-20" x="1981.75" y="503.18" width="254.42" height="10.3" transform="translate(-60 549.97) rotate(-14.65)"/><rect class="cls-20" x="1988.32" y="528.33" width="254.42" height="10.3" transform="translate(-66.14 552.43) rotate(-14.65)"/><rect class="cls-20" x="1994.9" y="553.47" width="254.42" height="10.3" transform="translate(-72.29 554.81) rotate(-14.65)"/><rect class="cls-20" x="2001.47" y="578.62" width="254.42" height="10.3" transform="translate(-78.44 557.36) rotate(-14.65)"/><rect class="cls-20" x="2008.04" y="603.77" width="254.42" height="10.3" transform="translate(-84.59 559.92) rotate(-14.65)"/><rect class="cls-20" x="2014.62" y="628.91" width="254.42" height="10.3" transform="translate(-90.73 562.32) rotate(-14.65)"/><rect class="cls-20" x="2021.19" y="654.06" width="254.42" height="10.3" transform="translate(-96.88 564.86) rotate(-14.65)"/><rect class="cls-20" x="2027.77" y="679.2" width="254.42" height="10.3" transform="translate(-103.01 567.13) rotate(-14.65)"/><rect class="cls-20" x="2034.34" y="704.35" width="254.42" height="10.3" transform="translate(-109.17 569.85) rotate(-14.65)"/><rect class="cls-20" x="2040.91" y="729.5" width="254.42" height="10.3" transform="translate(-115.31 572.24) rotate(-14.65)"/><rect class="cls-20" x="2047.49" y="754.64" width="254.42" height="10.3" transform="translate(-121.47 574.81) rotate(-14.65)"/><polygon class="cls-21" points="2312.65 477.99 2081.12 490.94 2103.51 891.34 2415.34 873.89 2397.21 549.78 2312.65 477.99"/><polygon class="cls-22" points="2316.91 554.28 2397.21 549.78 2312.65 477.99 2316.91 554.28"/><rect class="cls-23" x="2115.45" y="551.56" width="173.64" height="10.3" transform="translate(-27.66 123.88) rotate(-3.2)"/><rect class="cls-23" x="2116.9" y="577.51" width="173.64" height="10.3" transform="translate(-29.1 124) rotate(-3.2)"/><rect class="cls-23" x="2118.35" y="603.46" width="173.64" height="10.3" transform="translate(-30.55 124.11) rotate(-3.2)"/><rect class="cls-23" x="2119.74" y="627.16" width="254.42" height="10.3" transform="translate(-31.81 126.49) rotate(-3.2)"/><rect class="cls-23" x="2121.19" y="653.11" width="254.42" height="10.3" transform="translate(-33.26 126.61) rotate(-3.2)"/><rect class="cls-23" x="2122.64" y="679.06" width="254.42" height="10.3" transform="translate(-34.7 126.74) rotate(-3.2)"/><rect class="cls-23" x="2124.1" y="705.01" width="254.42" height="10.3" transform="translate(-36.15 126.85) rotate(-3.2)"/><rect class="cls-20" x="2125.55" y="730.96" width="254.42" height="10.3" transform="translate(-37.6 126.99) rotate(-3.2)"/><rect class="cls-20" x="2127" y="756.91" width="254.42" height="10.3" transform="translate(-39.05 127.09) rotate(-3.2)"/><rect class="cls-20" x="2128.45" y="782.87" width="254.42" height="10.3" transform="translate(-40.49 127.22) rotate(-3.2)"/><rect class="cls-20" x="2129.9" y="808.82" width="254.42" height="10.3" transform="translate(-41.94 127.34) rotate(-3.2)"/><rect class="cls-20" x="2131.35" y="834.77" width="254.42" height="10.3" transform="translate(-43.39 127.47) rotate(-3.2)"/><polygon class="cls-18" points="2679.38 708.34 3040.5 857.67 3140.08 615.97 2778.96 466.64 2679.38 708.34"/><polygon class="cls-1" points="2700.59 699.5 3031.73 836.43 3118.87 624.82 2787.74 487.88 2700.59 699.5"/><path class="cls-21" d="M2841.51,545.13a39,39,0,1,0,21.13,50.94A39,39,0,0,0,2841.51,545.13Z"/><polygon class="cls-21" points="2803.27 742.34 3031.37 836.67 2981.23 634.87 2803.27 742.34"/><polygon class="cls-21" points="2713.83 705.44 2902.15 783.32 2849.61 643.68 2713.83 705.44"/><path class="cls-1" d="M3012.38,726.66H1775.73a52,52,0,0,0-52,52v714.65a52,52,0,0,0,52,52H3012.38a52,52,0,0,0,52-52V778.64A52,52,0,0,0,3012.38,726.66Z"/><path class="cls-24" d="M3012.37,708.46H1775.73a70.25,70.25,0,0,0-70.15,70.18v714.65a70.24,70.24,0,0,0,70.15,70.17H3012.37a70.24,70.24,0,0,0,70.15-70.17V778.64A70.25,70.25,0,0,0,3012.37,708.46Zm33.78,784.83a33.81,33.81,0,0,1-33.78,33.78H1775.73a33.81,33.81,0,0,1-33.78-33.78V778.64a33.82,33.82,0,0,1,33.78-33.79H3012.37a33.82,33.82,0,0,1,33.78,33.79Z"/><path class="cls-24" d="M2893,1116.45c.47-5.78.78-11.61.78-17.52,0-116.34-94.29-210.66-210.6-210.66-99.08,0-182.13,68.45-204.58,160.64-19.05-19.15-44.9-30.94-73.4-30.94-54.17,0-98.83,42.55-105.21,97.46a106,106,0,0,0,9.74,211.45h565.66A106,106,0,0,0,2893,1116.45Z"/><g class="cls-25"><path class="cls-26" d="M2875.38,1297.09H2309.72A106,106,0,0,1,2204.84,1206a107.12,107.12,0,0,0-1.05,15,105.93,105.93,0,0,0,105.93,106h565.66A106,106,0,0,0,2980.25,1206,106,106,0,0,1,2875.38,1297.09Z"/></g><rect class="cls-15" x="2666.5" y="1194.27" width="61.52" height="289.76"/><polygon class="cls-15" points="2619.54 1245.78 2774.98 1245.78 2697.26 1118.98 2619.54 1245.78"/><rect class="cls-15" x="2479.4" y="1118.98" width="61.52" height="289.76"/><polygon class="cls-15" points="2510.16 1484.03 2587.88 1357.23 2432.44 1357.23 2510.16 1484.03"/><path class="cls-15" d="M3011.28,744.23H1720.93V825h1325.4V779.28A35,35,0,0,0,3011.28,744.23Z"/><path class="cls-1" d="M2882.76,772.9A14.27,14.27,0,1,0,2897,787.16,14.27,14.27,0,0,0,2882.76,772.9Z"/><path class="cls-1" d="M2928.11,773.33a14.27,14.27,0,1,0,14.26,14.26A14.26,14.26,0,0,0,2928.11,773.33Z"/><path class="cls-1" d="M2973,773.33a14.27,14.27,0,1,0,14.26,14.26A14.26,14.26,0,0,0,2973,773.33Z"/><rect class="cls-21" x="1801.36" y="1172.46" width="330.28" height="41.08" rx="6.12"/><rect class="cls-21" x="1800.51" y="1254.62" width="330.28" height="41.08" rx="6.12"/><rect class="cls-21" x="1798.8" y="1338.5" width="330.28" height="41.08" rx="6.12"/><rect class="cls-21" x="1804.57" y="913.98" width="321.72" height="203.7" rx="10.15"/><g class="cls-25"><path class="cls-26" d="M1985.93,610.88,1725.32,495.64a25,25,0,0,0-6.52-1.77l-1.23-.13a25,25,0,0,0-12.51,1.9l-260.6,115.24a25.07,25.07,0,0,0-14.84,20.76c-31.86,365.05,263,492.07,266,493.31a25.21,25.21,0,0,0,9.62,1.92h20a25.21,25.21,0,0,0,9.62-1.92c3-1.24,297.85-128.26,266-493.31A25.11,25.11,0,0,0,1985.93,610.88Z"/></g><path class="cls-21" d="M1681.62,492.45,1421,607.7c-30.63,351,250.64,468,250.64,468h19.95s281.26-117,250.63-468Z"/><path class="cls-13" d="M1952.36,584.76,1691.75,469.52a25.07,25.07,0,0,0-20.26,0L1410.88,584.76a25.08,25.08,0,0,0-14.83,20.76c-31.86,365.05,263,492.07,266,493.31a25.21,25.21,0,0,0,9.62,1.92h19.95a25.21,25.21,0,0,0,9.62-1.92c3-1.24,297.85-128.26,266-493.31A25.08,25.08,0,0,0,1952.36,584.76Zm-266.09,465.85H1677c-34.83-16.16-250.81-128.75-232.09-426l236.74-104.7,236.74,104.7C1937.09,921.86,1721.1,1034.45,1686.27,1050.61Z"/><g class="cls-27"><path class="cls-26" d="M1952.36,584.76,1691.75,469.52a25,25,0,0,0-14.34-1.7v632.93h14.19a25.21,25.21,0,0,0,9.62-1.92c3-1.24,297.85-128.26,266-493.31A25.08,25.08,0,0,0,1952.36,584.76Z"/></g><ellipse class="cls-13" cx="1686.83" cy="775.1" rx="142.08" ry="142.04" transform="translate(909.18 2460.75) rotate(-89.91)"/><polygon class="cls-1" points="1653.51 824.63 1610.88 750.98 1580.15 768.77 1649.13 887.94 1792.13 704.84 1764.15 682.98 1653.51 824.63"/><rect class="cls-28" x="1263.83" y="1513.67" width="83.1" height="62.34"/><rect class="cls-28" x="1616.99" y="1513.67" width="83.1" height="62.34"/><path class="cls-29" d="M1729,1467.49H1235a20.76,20.76,0,0,0-20.75,20.76v34.68a20.75,20.75,0,0,0,20.75,20.76h494a20.75,20.75,0,0,0,20.75-20.76v-34.68A20.76,20.76,0,0,0,1729,1467.49Z"/><path class="cls-21" d="M1689.7,1492.89H1409.83a10.39,10.39,0,1,0,0,20.78H1689.7a10.39,10.39,0,1,0,0-20.78Z"/><path class="cls-1" d="M1347.5,1489.43A11.55,11.55,0,1,0,1359,1501,11.54,11.54,0,0,0,1347.5,1489.43Z"/><path class="cls-1" d="M1308.26,1489.43A11.55,11.55,0,1,0,1319.8,1501,11.54,11.54,0,0,0,1308.26,1489.43Z"/><path class="cls-1" d="M1269,1489.43a11.55,11.55,0,1,0,11.54,11.54A11.54,11.54,0,0,0,1269,1489.43Z"/><path class="cls-30" d="M1991.05,1442.94H1991a4.61,4.61,0,0,0-4.61,4.53l-1.84,104-21.44,744.7c-2.13,73.81-64,132-137.68,130a4.62,4.62,0,1,0-.27,9.23c1.42.05,2.82.07,4.23.07a143.13,143.13,0,0,0,143-139l21.44-744.75,1.84-104A4.61,4.61,0,0,0,1991.05,1442.94Z"/><path class="cls-30" d="M1975.61,2020.89a4.6,4.6,0,0,0-4.75,4.48c-2.08,72.51-61.72,130.07-133.77,130.07q-2,0-3.9-.06a4.62,4.62,0,1,0-.27,9.23c1.4,0,2.78.07,4.17.07,77,0,140.77-61.54,143-139A4.61,4.61,0,0,0,1975.61,2020.89Z"/><path class="cls-30" d="M1983.36,1751.63a4.65,4.65,0,0,0-4.75,4.48,133.89,133.89,0,0,1-137.67,130,4.62,4.62,0,0,0-.27,9.23c1.42.05,2.82.07,4.23.07a143.13,143.13,0,0,0,142.94-139A4.61,4.61,0,0,0,1983.36,1751.63Z"/><path class="cls-30" d="M1946.78,1440.49a4.79,4.79,0,0,0-4.68,4.88l1.52,76.77-.3,11.21c-.3,23.93-7.74,43.05-22.1,56.82-24.84,23.84-65.1,27.83-94.57,27h-.14a4.78,4.78,0,0,0-.13,9.56q3.55.1,7.29.1c30.39,0,69-5.6,94.17-29.75,16.28-15.61,24.7-37,25-63.53l.29-11.37-1.52-77A4.87,4.87,0,0,0,1946.78,1440.49Z"/><path class="cls-30" d="M1804.21,1590.23h-19.87a33.13,33.13,0,0,0,0,66.25h19.87a33.13,33.13,0,0,0,0-66.25Z"/><rect class="cls-30" x="1190.39" y="1780.97" width="109.28" height="57.71"/><rect class="cls-30" x="1608" y="1780.97" width="109.28" height="57.71"/><path class="cls-18" d="M1775.24,1560.41h-642.8a33.13,33.13,0,0,0-33.12,33.13v175.57a33.12,33.12,0,0,0,33.12,33.12h642.8a33.11,33.11,0,0,0,33.11-33.12V1593.54A33.12,33.12,0,0,0,1775.24,1560.41Z"/><path class="cls-29" d="M1775.24,1755.86h-642.8a33.12,33.12,0,0,1-33.12-33.13v46.38a33.12,33.12,0,0,0,33.12,33.12h642.8a33.12,33.12,0,0,0,33.11-33.12v-46.38A33.12,33.12,0,0,1,1775.24,1755.86Z"/><rect class="cls-1" x="1135.75" y="1600.17" width="208.63" height="115.94"/><rect class="cls-1" x="1377.5" y="1600.17" width="391.11" height="115.94"/><path class="cls-30" d="M1804.21,1862.13h-19.87a33.13,33.13,0,0,0,0,66.25h19.87a33.13,33.13,0,0,0,0-66.25Z"/><rect class="cls-30" x="1190.39" y="2052.87" width="109.28" height="57.71"/><rect class="cls-30" x="1608" y="2052.87" width="109.28" height="57.71"/><path class="cls-18" d="M1775.24,1832.32h-642.8a33.12,33.12,0,0,0-33.12,33.12V2041a33.12,33.12,0,0,0,33.12,33.12h642.8a33.11,33.11,0,0,0,33.11-33.12V1865.44A33.11,33.11,0,0,0,1775.24,1832.32Z"/><path class="cls-29" d="M1775.24,2027.76h-642.8a33.12,33.12,0,0,1-33.12-33.13V2041a33.12,33.12,0,0,0,33.12,33.12h642.8a33.12,33.12,0,0,0,33.11-33.12v-46.38A33.12,33.12,0,0,1,1775.24,2027.76Z"/><rect class="cls-1" x="1135.75" y="1872.07" width="208.63" height="115.94"/><rect class="cls-1" x="1377.5" y="1872.07" width="391.11" height="115.94"/><path class="cls-30" d="M1804.21,2134h-19.87a33.13,33.13,0,0,0,0,66.25h19.87a33.13,33.13,0,0,0,0-66.25Z"/><rect class="cls-30" x="1190.39" y="2324.77" width="109.28" height="57.71"/><rect class="cls-30" x="1608" y="2324.77" width="109.28" height="57.71"/><path class="cls-18" d="M1775.24,2104.21h-642.8a33.13,33.13,0,0,0-33.12,33.13v175.57a33.12,33.12,0,0,0,33.12,33.12h642.8a33.11,33.11,0,0,0,33.11-33.12V2137.34A33.12,33.12,0,0,0,1775.24,2104.21Z"/><path class="cls-29" d="M1775.24,2299.66h-642.8a33.12,33.12,0,0,1-33.12-33.13v46.38a33.12,33.12,0,0,0,33.12,33.12h642.8a33.12,33.12,0,0,0,33.11-33.12v-46.38A33.12,33.12,0,0,1,1775.24,2299.66Z"/><rect class="cls-1" x="1135.75" y="2143.97" width="208.63" height="115.94"/><rect class="cls-1" x="1377.5" y="2143.97" width="391.11" height="115.94"/><path class="cls-30" d="M1804.21,2405.93h-19.87a33.13,33.13,0,0,0,0,66.25h19.87a33.13,33.13,0,0,0,0-66.25Z"/><rect class="cls-30" x="1190.39" y="2596.67" width="109.28" height="57.71"/><rect class="cls-30" x="1608" y="2596.67" width="109.28" height="57.71"/><path class="cls-18" d="M1775.24,2376.11h-642.8a33.13,33.13,0,0,0-33.12,33.13v175.57a33.12,33.12,0,0,0,33.12,33.12h642.8a33.11,33.11,0,0,0,33.11-33.12V2409.24A33.12,33.12,0,0,0,1775.24,2376.11Z"/><path class="cls-29" d="M1775.24,2571.56h-642.8a33.12,33.12,0,0,1-33.12-33.13v46.38a33.12,33.12,0,0,0,33.12,33.12h642.8a33.12,33.12,0,0,0,33.11-33.12v-46.38A33.12,33.12,0,0,1,1775.24,2571.56Z"/><rect class="cls-1" x="1135.75" y="2415.87" width="208.63" height="115.94"/><rect class="cls-1" x="1377.5" y="2415.87" width="391.11" height="115.94"/><path class="cls-21" d="M1716.77,1621.48h-290a10,10,0,0,0,0,20h290a10,10,0,0,0,0-20Z"/><path class="cls-21" d="M1714.74,1662h-290a10,10,0,0,0,0,20h290a10,10,0,0,0,0-20Z"/><path class="cls-10" d="M1266,1617.79a15.75,15.75,0,1,0,15.57,15.74A15.65,15.65,0,0,0,1266,1617.79Z"/><path class="cls-10" d="M1199.06,1664.55a15.75,15.75,0,1,0,15.57,15.75A15.66,15.66,0,0,0,1199.06,1664.55Z"/><path class="cls-16" d="M1201.34,1617.79a15.75,15.75,0,1,0,15.57,15.74A15.65,15.65,0,0,0,1201.34,1617.79Z"/><path class="cls-16" d="M1264.82,1665.69a15.75,15.75,0,1,0,15.56,15.75A15.66,15.66,0,0,0,1264.82,1665.69Z"/><path class="cls-21" d="M1714.71,1900.74h-290a10,10,0,0,0,0,20h290a10,10,0,0,0,0-20Z"/><path class="cls-21" d="M1712.69,1941.29h-290a10,10,0,0,0,0,20h290a10,10,0,0,0,0-20Z"/><path class="cls-10" d="M1263.91,1897.05a15.75,15.75,0,1,0,15.56,15.74A15.66,15.66,0,0,0,1263.91,1897.05Z"/><path class="cls-10" d="M1197,1943.81a15.75,15.75,0,1,0,15.56,15.75A15.66,15.66,0,0,0,1197,1943.81Z"/><path class="cls-16" d="M1199.29,1897.05a15.75,15.75,0,1,0,15.56,15.74A15.66,15.66,0,0,0,1199.29,1897.05Z"/><path class="cls-16" d="M1262.76,1945a15.75,15.75,0,1,0,15.57,15.75A15.66,15.66,0,0,0,1262.76,1945Z"/><path class="cls-21" d="M1716.74,2169.41h-290a10,10,0,0,0,0,20h290a10,10,0,0,0,0-20Z"/><path class="cls-21" d="M1714.71,2210h-290a10,10,0,0,0,0,20h290a10,10,0,0,0,0-20Z"/><path class="cls-10" d="M1265.93,2165.72a15.75,15.75,0,1,0,15.57,15.74A15.65,15.65,0,0,0,1265.93,2165.72Z"/><path class="cls-10" d="M1199,2212.48a15.75,15.75,0,1,0,15.56,15.75A15.66,15.66,0,0,0,1199,2212.48Z"/><path class="cls-16" d="M1201.31,2165.72a15.75,15.75,0,1,0,15.57,15.74A15.65,15.65,0,0,0,1201.31,2165.72Z"/><path class="cls-16" d="M1264.79,2213.62a15.75,15.75,0,1,0,15.56,15.75A15.66,15.66,0,0,0,1264.79,2213.62Z"/><path class="cls-21" d="M1710.66,2441.13h-290a10,10,0,0,0,0,19.95h290a10,10,0,0,0,0-19.95Z"/><path class="cls-21" d="M1708.63,2481.68h-290a10,10,0,0,0,0,20h290a10,10,0,0,0,0-20Z"/><path class="cls-10" d="M1259.85,2437.44a15.74,15.74,0,1,0,15.57,15.74A15.64,15.64,0,0,0,1259.85,2437.44Z"/><ellipse class="cls-10" cx="1192.95" cy="2499.94" rx="15.57" ry="15.75"/><path class="cls-16" d="M1195.23,2437.44a15.74,15.74,0,1,0,15.57,15.74A15.65,15.65,0,0,0,1195.23,2437.44Z"/><ellipse class="cls-16" cx="1258.71" cy="2501.08" rx="15.57" ry="15.75"/><ellipse class="cls-28" cx="1993.5" cy="1435.52" rx="22.43" ry="22.43" transform="translate(548.13 3421.88) rotate(-89.72)"/><ellipse class="cls-28" cx="1942.57" cy="1432.73" rx="22.43" ry="22.43" transform="translate(500.24 3368.18) rotate(-89.72)"/><path class="cls-18" d="M1626.47,1258.94l21.91-21.88-34-33.94-21.94,21.9a90.22,90.22,0,0,0-20.24-8.37v-31h-48.07v31a90,90,0,0,0-20.26,8.37l-21.92-21.9-34,33.94,21.89,21.88a89.32,89.32,0,0,0-8.43,20.27H1430.5v48h30.88a88.74,88.74,0,0,0,8.42,20.34l-21.82,21.8,34,34,21.79-21.77a89.92,89.92,0,0,0,20.39,8.45v30.78h48.07V1390a89.84,89.84,0,0,0,20.38-8.45l21.8,21.77,34-34-21.83-21.8a89.19,89.19,0,0,0,8.42-20.34h30.87v-48H1634.9A89.32,89.32,0,0,0,1626.47,1258.94Zm-78.29,86.79c-58.27-3.51-53-83.15,0-84.81C1606.42,1264.42,1601.2,1344.07,1548.18,1345.73Z"/><path class="cls-19" d="M1469.4,1303.32c6.72,109.12,155.24,98.86,157.54,0C1620.22,1194.2,1471.69,1204.5,1469.4,1303.32Zm78.78,42.41c-58.27-3.51-53-83.15,0-84.81C1606.42,1264.42,1601.2,1344.07,1548.18,1345.73Z"/><path class="cls-31" d="M2439.22,2474.35c-53.25-14.51-100.91-43.86-134.31-88.08a94.3,94.3,0,0,1-9.12-14.78c-1.47,22.93-2.85,45.93-2.85,68.88,0,69.93,53.85,68.13,53.85,68.13h346.07a46.45,46.45,0,0,0,28.93-10.92q-22.35-.3-44.67-1C2599.36,2494.19,2514.66,2494.9,2439.22,2474.35Z"/><path class="cls-32" d="M2718.52,2136.63c-2.49-23.4-4.54-47.13-8.57-70.33-3.06-17.63-4.76-36.72-12.47-53.45q-1.33-2.88-2.89-5.63c-7.88-13.89-19.9-24.93-33.66-33.07-32.48-19.18-77.12-21.94-114.28-24.12-43.4-2.55-89.47-1-131.78,9.8-22.14,5.68-43.62,16.36-58.42,33.77-15.22,17.91-22.18,41.3-27.26,64.24-10.07,45.43-11.92,91.5-16.49,137.63-6.48,65.5-11.81,95.27-15.95,161q-.48,7.52-1,15.06a94.3,94.3,0,0,0,9.12,14.78c33.4,44.22,81.06,73.57,134.31,88.08,75.44,20.55,160.14,19.84,237.9,22.24q22.32.69,44.67,1c10.91-9.2,20.74-26.1,20.74-57.21,0-46.8-3.91-93.8-7.1-140.47C2730.89,2233.45,2725.56,2202.87,2718.52,2136.63Z"/><path class="cls-1" d="M2580.43,1945.53l-106.34-4.92s-43.85,10.3-54.62,43.7c-15.07,46.75,68.2,87.62,68.2,87.62l39.59-43.92,36.69,43.92S2696.51,1985.88,2580.43,1945.53Z"/><path class="cls-33" d="M2562.46,1949c-19.08-5.54-72.75,12.1-88.37-.16v3.66c-.73.38-1.45.76-2.14,1.16-13.8,7.89-22.32,18.71-22.32,30.66,0,9.4,11.78,18.1,26.16,25.23,22.53,11.18,51.47,18.47,51.47,18.47s77.62-19.57,77.62-43.7a25.06,25.06,0,0,0-.73-6C2585.52,1961.63,2587.52,1956.28,2562.46,1949Z"/><polygon class="cls-14" points="2428.18 2606.25 2665.09 2606.25 2746.87 2489.5 2255.05 2485.33 2428.18 2606.25"/><path class="cls-34" d="M2696,2487.72h-353.6a20.07,20.07,0,0,0-20.08,20.06h0a20.07,20.07,0,0,0,20.08,20.06H2696a20.07,20.07,0,0,0,20.08-20.06h0A20.07,20.07,0,0,0,2696,2487.72Z"/><path class="cls-1" d="M2500,2560.11l-31.54,105.24,17.25,16.63s186.53,80.14,212.61-21.13C2720.24,2575.59,2500,2560.11,2500,2560.11Z"/><path class="cls-35" d="M2493.4,2560.11l-23.79,106.38,15.53,16s164.51,72.82,183.69-29.39C2685,2567,2493.4,2560.11,2493.4,2560.11Z"/><path class="cls-13" d="M2127.71,2560.11c-19.74,170.74,357.43,122.33,357.43,122.33l38.79-119.81S2147.45,2389.37,2127.71,2560.11Z"/><path class="cls-1" d="M2517.8,2584.2a84.68,84.68,0,0,0-19.07,77.36c2.58,10.05,18.17,5.79,15.57-4.29a67.91,67.91,0,0,1,14.92-61.66C2536.15,2587.89,2524.76,2576.45,2517.8,2584.2Z"/><path class="cls-1" d="M2545.62,2591.37a84.72,84.72,0,0,0-19.08,77.36c2.59,10.05,18.18,5.79,15.58-4.29a67.88,67.88,0,0,1,14.92-61.66C2564,2595.07,2552.58,2583.62,2545.62,2591.37Z"/><path class="cls-1" d="M2573.76,2600a84.71,84.71,0,0,0-19.07,77.36c2.59,10,18.17,5.79,15.57-4.29a67.89,67.89,0,0,1,14.93-61.66C2592.11,2603.72,2580.72,2592.27,2573.76,2600Z"/><path class="cls-14" d="M2303.44,2592.21c-49.65,40-55.61,85.33-55.61,85.33s81.34,18.06,152.53,8.5l71.19-9.56,58.95-116.15-46.34-14.54S2353.1,2552.17,2303.44,2592.21Z"/><path class="cls-1" d="M2334.9,2660.85C2361,2762.12,2547.51,2682,2547.51,2682l17.25-16.63-30.4-101.43S2312.94,2575.59,2334.9,2660.85Z"/><path class="cls-36" d="M2364.36,2653.05c19.18,102.21,183.69,29.39,183.69,29.39l15.52-16-23.78-106.38S2348.2,2567,2364.36,2653.05Z"/><path class="cls-13" d="M2539.79,2560.11l8.26,122.33s377.17,48.41,357.43-122.33S2539.79,2560.11,2539.79,2560.11Z"/><path class="cls-1" d="M2504,2595.61a67.89,67.89,0,0,1,14.93,61.66c-2.6,10.08,13,14.34,15.57,4.29a84.71,84.71,0,0,0-19.07-77.36C2508.43,2576.45,2497,2587.89,2504,2595.61Z"/><path class="cls-1" d="M2476.15,2602.78a67.91,67.91,0,0,1,14.92,61.66c-2.6,10.08,13,14.34,15.57,4.29a84.68,84.68,0,0,0-19.07-77.36C2480.61,2583.62,2469.22,2595.07,2476.15,2602.78Z"/><path class="cls-1" d="M2448,2611.43a67.88,67.88,0,0,1,14.92,61.66c-2.59,10.08,13,14.34,15.58,4.29a84.72,84.72,0,0,0-19.08-77.36C2452.46,2592.27,2441.08,2603.72,2448,2611.43Z"/><path class="cls-1" d="M2178.17,2405.47c-4.11,17.75-3.74,31.14-1.23,41.2,45.07,22.47,96.92,20.35,96.92,20.35L2292,2350.09l-31.8-6.33S2191.84,2346.46,2178.17,2405.47Z"/><path class="cls-32" d="M2114,2365.84c7.81,41.82,34,66.4,62.9,80.83-2.51-10.06-2.88-23.45,1.23-41.2,13.67-59,82-61.71,82-61.71l42.91-61.16,93.82-318.3C2264.48,1993.52,2094.06,2258.92,2114,2365.84Z"/><path class="cls-37" d="M2259.58,2339a86.43,86.43,0,0,0-110.82,11.06c-2.83,2.92,1.63,7.38,4.46,4.46a80.09,80.09,0,0,1,103.18-10.08C2259.75,2346.74,2262.9,2341.28,2259.58,2339Z"/><path class="cls-38" d="M2236,2379.26c-29.44,53.7,37.86,87.76,37.86,87.76l78.51.05-19-105.18S2265.45,2325.57,2236,2379.26Z"/><path class="cls-1" d="M2774.89,2343.76l-31.47,8.52,17.8,114.74s51.85,2.12,96.91-20.35c2.52-10.06,2.88-23.45-1.23-41.2C2843.23,2346.46,2774.89,2343.76,2774.89,2343.76Z"/><path class="cls-32" d="M2638.16,1964.3,2732,2282.6l42.92,61.16s68.34,2.7,82,61.71c4.11,17.75,3.75,31.14,1.23,41.2,28.95-14.43,55.1-39,62.91-80.83C2941,2258.92,2770.6,1993.52,2638.16,1964.3Z"/><path class="cls-37" d="M2775.49,2339c-3.32,2.29-.16,7.76,3.19,5.44a80.09,80.09,0,0,1,103.18,10.08c2.82,2.92,7.28-1.54,4.46-4.46A86.44,86.44,0,0,0,2775.49,2339Z"/><path class="cls-38" d="M2706.69,2361.89l-24,105.18,78.52-.05s67.29-34.06,37.85-87.76S2706.69,2361.89,2706.69,2361.89Z"/><path class="cls-10" d="M2718.41,2236.06H2323.07a35.57,35.57,0,0,0-35,41.8l32.19,180.53a35.58,35.58,0,0,0,35,29.33h331a35.6,35.6,0,0,0,35.05-29.33l32.19-180.53A35.58,35.58,0,0,0,2718.41,2236.06Z"/><ellipse class="cls-21" cx="2519.16" cy="2379.26" rx="39.71" ry="30.25"/><path class="cls-1" d="M2624.52,1789.5H2608.7c-4.06,0-4.07,6.3,0,6.3h15.82C2628.58,1795.8,2628.58,1789.5,2624.52,1789.5Z"/><path class="cls-1" d="M2546.1,1791.48h-18.5c-4.7,0-4.71,6.3,0,6.3h18.5C2550.8,1797.78,2550.81,1791.48,2546.1,1791.48Z"/><path class="cls-1" d="M2462,1791.48H2448c-4.06,0-4.06,6.3,0,6.3H2462C2466.09,1797.78,2466.1,1791.48,2462,1791.48Z"/><path class="cls-1" d="M2494.74,1778.61c4.05-.08,4.06-6.39,0-6.3C2490.67,1772.22,2490.68,1778.53,2494.74,1778.61Z"/><path class="cls-1" d="M2494.74,1772.31c4.06-.09,4.05,6.22,0,6.3,16.11.36,29.54,13.18,29.54,29.52a29.55,29.55,0,0,1-59.09,0c0-16.34,13.44-29.16,29.55-29.52-4.06-.08-4.07-6.39,0-6.3a35.81,35.81,0,1,0,35.24,29.27C2526.89,1784.56,2511.76,1772.69,2494.74,1772.31Z"/><path class="cls-1" d="M2579.22,1771.57c4.07-.09,4.05,6.21,0,6.3,16.11.35,29.55,13.18,29.55,29.52a29.55,29.55,0,0,1-59.1,0c0-16.34,13.44-29.17,29.55-29.52-4.06-.09-4.06-6.39,0-6.3a36.38,36.38,0,0,0-33.55,23.23,35.83,35.83,0,1,0,68.79,6C2611.38,1783.81,2596.24,1771.94,2579.22,1771.57Z"/><path class="cls-1" d="M2579.22,1777.87c4.05-.09,4.07-6.39,0-6.3C2575.16,1771.48,2575.16,1777.78,2579.22,1777.87Z"/><path class="cls-39" d="M2638.05,1742.06c9.42-30.76,4-40.9-4-58.27s-75.72-12.3-87.32-12.3-117.36,4.86-117.36,4.86-28.64,24.09-19.95,57,5.44,54.65,5.44,54.65-.37,37.28,60.86,42.71,135.5,5.43,135.5,5.43,15.22-10.86,17.75-18.82,16.91-30.89,16.91-30.89S2628.63,1772.82,2638.05,1742.06Z"/><path class="cls-33" d="M2472.46,1986.91a32,32,0,0,0,26.92,31.66,128,128,0,0,0,29.86,1.19c12-.88,21.68-2,29.49-3.2a32.07,32.07,0,0,0,27.28-31.71v-96.44l-113.55-14.57Z"/><path class="cls-40" d="M2475,1919.52c4.69,10.84,18.65,34,52.56,33.63,44.39-.47,55.25-33.78,55.25-33.78s.24,0,.67-.14v-30.82L2475,1873.84Z"/><ellipse class="cls-33" cx="2435.92" cy="1814.67" rx="35.87" ry="35.84"/><path class="cls-41" d="M2428.51,1801.43a2.18,2.18,0,1,0-2.92,3.23l24.3,21.91a2.18,2.18,0,1,0,2.92-3.23Z"/><path class="cls-33" d="M2623.75,1778.83a35.84,35.84,0,1,0,35.87,35.84A35.87,35.87,0,0,0,2623.75,1778.83Z"/><path class="cls-41" d="M2633.61,1804.8l-24.3,21.92a2.17,2.17,0,0,0,1.46,3.79,2.12,2.12,0,0,0,1.45-.56l24.31-21.92a2.18,2.18,0,0,0-2.92-3.23Z"/><path class="cls-33" d="M2476.83,1679.31,2440.17,1734v143.79a19.65,19.65,0,0,0,8.27,15.92s41.1,41.88,83.52,44.17c42.42-2.29,83.52-44.17,83.52-44.17a19.65,19.65,0,0,0,8.27-15.92V1734l-31-33.14Z"/><path class="cls-41" d="M2539.14,1779.4a2.24,2.24,0,0,0-2,2.45l6.25,60.51h-19.91a2.23,2.23,0,0,0,0,4.45h22.38a2.23,2.23,0,0,0,2.22-2.46l-6.5-63A2.26,2.26,0,0,0,2539.14,1779.4Z"/><path class="cls-42" d="M2470,1768.6c1.42,7.72,29.39,2.2,29.54-6.25C2499.74,1749,2467.59,1755.79,2470,1768.6Z"/><path class="cls-42" d="M2568,1760.05c-2.28,6.86,22.73,14.81,26.6,8.07C2600.78,1757.44,2571.82,1748.68,2568,1760.05Z"/><g class="cls-43"><ellipse class="cls-44" cx="2474.99" cy="1845.32" rx="29.05" ry="29.02"/></g><g class="cls-43"><path class="cls-44" d="M2588.86,1813.82a29,29,0,1,0,29,29A29,29,0,0,0,2588.86,1813.82Z"/></g><path class="cls-45" d="M2497.62,1796.47c-3.41-.08-6.29,4.6-6.42,10.46s2.52,10.66,5.93,10.74,6.29-4.6,6.42-10.46S2501,1796.55,2497.62,1796.47Z"/><path class="cls-45" d="M2571.63,1792.39c-3.41-.08-6.29,4.6-6.42,10.45s2.52,10.66,5.93,10.74,6.29-4.6,6.43-10.45S2575,1792.47,2571.63,1792.39Z"/><path class="cls-41" d="M2552,1875.91c-17,11.39-30.23-.26-30.78-.76a2.23,2.23,0,0,0-3,3.29,30.42,30.42,0,0,0,18.85,6.86,30.93,30.93,0,0,0,17.42-5.69,2.23,2.23,0,0,0-2.48-3.7Z"/><path class="cls-46" d="M2610.72,1657.3a38.85,38.85,0,0,0-13.6-6.92c-2.5-.66-9.39-2.62-11.78-1.22a21.24,21.24,0,0,0,10.28-15.58c-.26,2.23-18.56-.73-20.38-1.13-6.85-1.52-13.49-3.8-20.2-5.82-9.06-2.73-17.42-6.37-26.95-7.5-18.1-2.13-37.36,2.79-52.49,12.71a53.51,53.51,0,0,0-16.47,16.65c-2,3.21-4,7.07-4.43,10.8-.1,1-.67,8.56,1.06,8.52-9.71.22-18.71,2.35-26.37,8.54a37.27,37.27,0,0,0-13.45,23.77c-1.57,11.81,2.66,23.3,5.27,34.66,2.39,10.44,2.05,21.44,1.72,32.12,0,.83,10.61-1.65,11.28-1.65v-21.17c0-33.73,28.05-61.06,62.65-61.06H2559a63.69,63.69,0,0,1,49.19,23.24c7.72,9.53,11.78,21.15,13.09,33.13a90.23,90.23,0,0,1-.08,16.27c-.18,2.45-.5,4.91-.69,7.34-.16,2.22.89,4.72,1.16,7,.49,4,.64,8.06.83,12.1l10.95-6.52c.29-6.19-.4-12.43.3-18.57a65.9,65.9,0,0,1,5.69-19.81c6.17-13.44,2.79-31.59-2.4-44.82A81.9,81.9,0,0,0,2610.72,1657.3Z"/><path class="cls-39" d="M2628,1723.51c-1.59-4.47-1.45-9.44-3-14.08a50.73,50.73,0,0,0-15.19-22c-21-18-52.22-21.26-79-21.26-104.06,0-104.76,65.25-104.76,65.25,1.18,7.57-6.5,16.07-5.32,23.63a92,92,0,0,0,.73,10.86c.47,3.28.07,3.59-.36,6.87l16.75,2.53c1.45-5.35,3.41-11.62,8.16-15.06,3.56-2.57,7.12-5.09,10.61-7.73,3.2-2.41,6.6-4.89,8.24-8.6,1.87-4.23,2.11-9,2.86-13.48-.09.55,5.55,4.23,6.3,4.79a72.24,72.24,0,0,0,7.19,4.9,90.76,90.76,0,0,0,15.72,7.19c12,4.23,26.08,6.61,38.8,4.19a69.91,69.91,0,0,0,20.38-7.87c8.79-4.83,15.91-10.63,26.47-11.3,8.73-.55,22.47,1.75,25.33,11.23,2.64,8.72-1.41,19.19,4.36,27.07,1.16,1.59,2.69,2.89,4,4.36,4.46,5,6.24,11.81,6.55,18.43-.15-3.08,3.55-7.37,4.58-10.29,1.54-4.34,6.39-3.3,7.09-7.82,1.57-10.12-2.15-26.47-2.8-36.68C2631.28,1733.09,2629.8,1728.7,2628,1723.51Z"/><path class="cls-39" d="M2448.93,1732.29s-15.21,14.84-18.47,18.09,3.62,28.23,3.62,28.23,15.58,16.65,11.23,9.05,6.52-32.21,6.52-32.21Z"/><polygon class="cls-15" points="2316.89 2235.69 2343.14 2236.44 2322.89 2099.35 2316.89 2235.69"/><path class="cls-15" d="M2718.41,2236.06c21.06,1.87,33.43,19.11,33.43,19.11l-35.89-165Z"/><path class="cls-15" d="M2150.41,2351.56c56.5-47.95,109.78-7.8,109.78-7.8l15.21-21.17C2185.91,2276.15,2150.41,2351.56,2150.41,2351.56Z"/><path class="cls-15" d="M2772.5,2340.4l1,3.67,17,2.33c48.66-26,97,6.66,97,6.66C2833.83,2297.45,2772.5,2340.4,2772.5,2340.4Z"/><path class="cls-30" d="M2320.7,2457c-2,.24-200.46,23.59-296.78-56.65-31.7-26.4-49.07-61.49-51.63-104.28a4.62,4.62,0,0,0-9.22.55c2.72,45.44,21.2,82.73,54.94,110.83,63,52.46,164.84,62.41,233.11,62.41a628.93,628.93,0,0,0,70.71-3.69,4.62,4.62,0,1,0-1.13-9.17Z"/><path class="cls-7" d="M3086.68,1522.12c-5.15-8.22-11.15-17.64-16.24-25.16-6.48-9.6-19.15-25-27.31-29.82-12.2-7.17-68.24-29.3-74.58-15.9-3.67,7.74,15.72,15.81,30.23,20.64-15.09-3.87-36.59-7.46-39.29,2.63-1.77,6.6,7.72,11.67,19.34,15.33-9.18-.43-16.68,1.17-17.33,7.38-.67,6.54,13.26,12.22,26.92,16.17-10.42-1.48-20.27-1.23-21.16,4.73-2.13,14.4,46.7,26.12,46.7,26.12-.07.6-.14,1.2-.2,1.78-2.94,29.26,20,53.87,49.92,54.47,62.35,1.26,239.79,2.14,314.74-26a100.12,100.12,0,0,0,10.65-4.82c14.95-7.74,32.88-20.57,51.55-35.72,16.35-13.24,33.29-28.25,49.28-43.1l-211.44-5.3S3096.45,1518.48,3086.68,1522.12Z"/><path class="cls-47" d="M3029,1480.52c-35.68-15.71-58.55-12.52-57.93-12.49,14.65.83,36.21,6.77,42.21,8.53s9.67,2.44,15.65,4.19C3029.08,1480.79,3029.13,1480.58,3029,1480.52Z"/><path class="cls-47" d="M2979,1489.72c-.62,0-.49.23.11.39,7.69,2,37.71,10.51,45.24,12.89.12,0,.17-.13.06-.18C3008.07,1494.29,2986.66,1490,2979,1489.72Z"/><path class="cls-47" d="M2986.29,1513.11c-.61-.06-.4.34.2.49,11.87,2.81,21.21,4.93,35.13,9,.22.06.41-.29.18-.39C3006.55,1515.7,2999,1514.31,2986.29,1513.11Z"/><path class="cls-7" d="M3385.9,1470.37l-133.79,20.15,11.15,104.55s202.71-21.29,222-36.5,44.72-166.9,44.72-166.9l-132.27,3Z"/><polygon class="cls-47" points="3523.74 1429.31 3529.95 1391.67 3397.68 1394.71 3523.74 1429.31"/><path class="cls-48" d="M3380.58,912.35c-8.43,15.78-28.27,27.69-28.27,27.69l-4.54,56.35,19.88,3.31c20.81,8.73,43.15-24.42,36.45-79.4C3402.43,906.64,3385.32,903.49,3380.58,912.35Z"/><path class="cls-7" d="M3256.15,1154.21s16.19-3.41,51.6-.7c29.78,2.29,47.37-8.35,47.37-8.35V1026.3l-94.74,12.7Z"/><polygon class="cls-47" points="3250.84 1159.29 3327.55 1087.24 3256.8 1115.31 3250.84 1159.29"/><path class="cls-7" d="M3193.34,1072a19.21,19.21,0,0,0,8,15.62l37.89,26.93a18.59,18.59,0,0,0,18.14,2l70.47-29.72a19.19,19.19,0,0,0,11.63-17.68l1.75-151.11L3193.34,931Z"/><g class="cls-43"><path class="cls-49" d="M3193.34,1003.7v54.75a27.38,27.38,0,1,0,0-54.75Z"/></g><path class="cls-41" d="M3249.25,1029h-18.82l5.91-57.11a2.11,2.11,0,0,0-4.2-.43l-6.14,59.43a2.06,2.06,0,0,0,.53,1.62,2.11,2.11,0,0,0,1.56.69h21.16a2.1,2.1,0,1,0,0-4.2Z"/><ellipse class="cls-7" cx="3364.63" cy="1025.86" rx="34.75" ry="34.65"/><path class="cls-50" d="M3261.13,960.72c.15,8,26.6,13.17,27.95,5.89C3291.31,954.52,3260.9,948.08,3261.13,960.72Z"/><g class="cls-43"><ellipse class="cls-49" cx="3300.87" cy="1029.25" rx="27.47" ry="27.39"/></g><path class="cls-45" d="M3269,981.47c-3.23.08-5.74,4.61-5.61,10.14s2.85,9.94,6.08,9.87,5.74-4.62,5.61-10.14S3272.19,981.4,3269,981.47Z"/><path class="cls-45" d="M3211.28,981.43c-3.22.08-5.74,4.62-5.61,10.14s2.85,9.94,6.08,9.87,5.74-4.62,5.61-10.14S3214.51,981.36,3211.28,981.43Z"/><path class="cls-41" d="M3373,1005.47c-9,1.24-25.47,8.18-23.14,25.65.79,5.92,2.67,10.81,5.6,14.54a2.12,2.12,0,0,0,1.66.81,2.11,2.11,0,0,0,1.66-3.4c-2.46-3.13-4-7.34-4.74-12.5-2.35-17.66,18.62-20.8,19.54-20.93a2.11,2.11,0,1,0-.58-4.17Z"/><path class="cls-41" d="M3372.31,1024.36c-4.51-2.93-14.92-5.58-22.09,5.33a2.11,2.11,0,0,0,.6,2.92,2.14,2.14,0,0,0,1.16.34,2.1,2.1,0,0,0,1.76-1c6.53-9.93,15.29-4.74,16.27-4.12a2.1,2.1,0,0,0,2.3-3.52Z"/><g class="cls-51"><path class="cls-1" d="M3245.53,977.69l-3.71,3.92c0,1.33,0,2.74.1,4.2l35.84,33.73a21.29,21.29,0,0,0,8.58-7.95l-36-33.9Z"/></g><g class="cls-51"><path class="cls-1" d="M3267.47,1021.78a25.55,25.55,0,0,0,4.59-.4l-29.7-29.13C3243.81,1006.21,3249,1021.78,3267.47,1021.78Z"/></g><g class="cls-51"><path class="cls-1" d="M3182.51,977.69c0,14,0,44.09,23.26,44.09,9.59,0,15.21-5.11,18.53-12.09l-32.62-32Z"/></g><path class="cls-52" d="M3229,975.74h-46.52a2,2,0,0,0-2,1.77c-.42,4.3-2,26.38,8.66,38.55a22.23,22.23,0,0,0,16.47,7.67c.38,0,.76,0,1.13,0,10.52,0,17.69-6.14,21.3-18.26,2.87-9.58,2.87-21,2.87-27.8A2,2,0,0,0,3229,975.74Zm-23.18,44.09a18.49,18.49,0,0,1-13.68-6.34c-7-8.06-8.63-22.86-7.86-33.84h42.76C3227,994.14,3226.26,1020.72,3205.85,1019.83Z"/><path class="cls-52" d="M3293.14,975.74H3241.8a2,2,0,0,0-2,2c0,7.38,0,18.43,3.31,28,4.16,12,12.34,18.05,24.32,18.05,27.62,0,27.62-34.65,27.62-46A2,2,0,0,0,3293.14,975.74Zm-25.66,44.09c-10.27,0-17-5.05-20.62-15.43-2.83-8.17-3.07-17.78-3.09-24.75h47.4C3290.82,1006.67,3283.06,1019.83,3267.48,1019.83Z"/><path class="cls-52" d="M3344.42,975.74H3229a2,2,0,1,0,0,3.91h115.39a2,2,0,1,0,0-3.91Z"/><path class="cls-48" d="M3154.28,884.29c-10,33.82,19.1,49.62,20.17,49.84,0,0-11,20.28,7.39,28.69,12.22,5.56,47.34-53.36,47.34-53.36l-47.31-14.83S3160.16,889.49,3154.28,884.29Z"/><path class="cls-48" d="M3247.06,878.52l-41.47,12.23-23.75,72.07c78.91-7.11,103.95-50.12,103.95-50.12s58.09,40.91,44.46,86.95c21.45-5.37,24.64-16.85,24.64-16.85l6.33-71.13-48.66-43.06Z"/><path class="cls-48" d="M3306.73,865.62c-.17-1.16-.65-3-1.11-5s-1.12-4.08-1.84-6.34-1.76-4.63-2.72-7.15c-1.17-2.46-2.28-5.08-3.79-7.64l-2.24-3.9-2.6-3.82a74.56,74.56,0,0,0-5.9-7.36l-3.28-3.42-3.56-3.11a34.71,34.71,0,0,0-3.69-2.83,37.93,37.93,0,0,0-3.76-2.52,53.82,53.82,0,0,0-7.65-3.86,46.11,46.11,0,0,0-7.21-2.48,44.24,44.24,0,0,0-6.27-1.28,28.56,28.56,0,0,0-4.87-.49l-4.23-.2,4.11.9a26.42,26.42,0,0,1,4.6,1.27,39.75,39.75,0,0,1,5.7,2.22,41,41,0,0,1,6.23,3.41,47.48,47.48,0,0,1,6.24,4.66,32.24,32.24,0,0,1,2.93,2.81,30,30,0,0,1,2.78,3.05l2.6,3.24,2.3,3.49a64.63,64.63,0,0,1,3.92,7.26l1.61,3.67c.44,1.25.87,2.48,1.3,3.69.88,2.4,1.39,4.84,2,7.07.4,2.3,1,4.42,1.14,6.43a50.16,50.16,0,0,1,.52,5.34c.07,1.57.2,2.75.15,4.13,0,2.55,0,4,0,4a8.74,8.74,0,0,0,17.46.13,8.93,8.93,0,0,0-.13-1.47S3307.18,868.14,3306.73,865.62Z"/><path class="cls-48" d="M3379,918.82s24-37.44-5.45-60.33c-31.94-24.85-78.33-15.13-78.33-15.13s-17.28-21.26-59.71-30.29-34.76,25.07-22.45,32.69c-74.6-21.33-84.32,45.42-41.17,67.59,46.06,23.65,104.67.39,104.67.39s-17.72,40.19,51.64,30.32c-3,44.36.52,81.78,24.28,79.65-18.08-37.12,42.94-56.79,45.57-80.19S3379,918.82,3379,918.82Z"/><path class="cls-50" d="M3191,966c3.67,6.37,27.32-1.14,25.17-7.61C3212.62,947.66,3185.24,955.93,3191,966Z"/><path class="cls-53" d="M3253.88,1051.63a18,18,0,0,0-2.34-1.86,15,15,0,0,0-15.86-1,25.21,25.21,0,0,0-6.9,5.77c-3.43,4.11-5.46,9.37-3.08,14.2a9.13,9.13,0,0,0,.45.82c3,4.94,9.46,6.77,14.9,7.17,6,.44,14.38-.28,17.79-6A10,10,0,0,0,3260,1068C3261.35,1062.23,3257.92,1055.43,3253.88,1051.63Z"/><path class="cls-54" d="M3233.78,1064.44a26.18,26.18,0,0,0-7.63,5.17c3,4.94,9.46,6.77,14.9,7.17,6,.44,14.38-.28,17.79-6A10,10,0,0,0,3260,1068a18.94,18.94,0,0,0-8-4.65A26.48,26.48,0,0,0,3233.78,1064.44Z"/><path class="cls-1" d="M3235.68,1048.82a20.33,20.33,0,0,0-4.83,3.57,24,24,0,0,0-2.07,2.2,34.34,34.34,0,0,0,5.07.1c5.26-.22,11.5-.14,16.5-1.8a16.5,16.5,0,0,0,3.29-1.52C3249.13,1048,3243.83,1044.89,3235.68,1048.82Z"/><path class="cls-7" d="M3298.86,1183.7c54-1.52,56.26-38.54,56.26-38.54l-102.25,9.26S3244.89,1185.22,3298.86,1183.7Z"/><path class="cls-55" d="M2847.27,1761.53a18.35,18.35,0,1,0,18.25,18.43A18.33,18.33,0,0,0,2847.27,1761.53Z"/><path class="cls-55" d="M2796,1741.72c-9.15,9.61,5.34,24.3,14.52,14.66,20.14-21.15,52.87-21.8,73.53-1,9.37,9.44,24-5.08,14.66-14.52C2870.37,1712.31,2823.85,1712.48,2796,1741.72Z"/><path class="cls-55" d="M2846.79,1611c-42.9.1-81,17.64-113.07,45.36-10.06,8.7,4.51,23.31,14.52,14.66,27.89-24.12,61.18-39.3,98.46-39.39,37-.09,73.39,13,100.45,38.45,9.67,9.08,24.35-5.41,14.65-14.52C2930.8,1626.41,2889.23,1610.86,2846.79,1611Z"/><path class="cls-55" d="M2845.51,1664.16a123.76,123.76,0,0,0-87.21,39.49c-9,9.73,5.48,24.43,14.52,14.66,18.7-20.22,44.9-32.88,72.59-33.51,28.45-.65,55.91,11.07,75.68,31.39,9.28,9.53,23.93-5,14.66-14.52C2912.35,1677.62,2879.19,1663.4,2845.51,1664.16Z"/></g></svg>